<?xml version="1.0" encoding="UTF-8"?>
<svg xmlns="http://www.w3.org/2000/svg" viewBox="0 0 1024 1024" width="1024" height="1024">
  <defs>
    <style>
      .pinyin { font-family: serif; font-size: 156px; font-weight: 600; fill: #141414; }
      .hanzi { font-family: serif; font-size: 420px; font-weight: 800; fill: #141414; }
    </style>
  </defs>
  <rect x="0" y="0" width="1024" height="1024" fill="#F6F1E6"/>

  <text class="pinyin" x="252" y="370" text-anchor="middle">d</text>
  <text class="pinyin" x="340" y="370" text-anchor="middle">u</text>
  <!-- 阳平 ˊ: 缩到横向跨度 34px, 总长~48 -->
  <line x1="324" y1="250" x2="358" y2="215"
        stroke="#D93A2E" stroke-width="22" stroke-linecap="round"/>

  <g stroke="#A8A099" stroke-width="3" stroke-dasharray="9 11" opacity="0.55">
    <rect x="70" y="470" width="436" height="436" fill="none" stroke="#A8A099" stroke-width="2.5" stroke-dasharray="0"/>
    <line x1="288" y1="470" x2="288" y2="906"/>
    <line x1="70" y1="688" x2="506" y2="688"/>
    <line x1="70" y1="470" x2="506" y2="906"/>
    <line x1="506" y1="470" x2="70" y2="906"/>
  </g>
  <text class="hanzi" x="288" y="828" text-anchor="middle">读</text>

  <text class="pinyin" x="654" y="370" text-anchor="middle">x</text>
  <text class="pinyin" x="728" y="370" text-anchor="middle">i</text>
  <text class="pinyin" x="804" y="370" text-anchor="middle">e</text>
  <path d="M 778 240 Q 804 294 830 240"
        fill="none" stroke="#D93A2E" stroke-width="22"
        stroke-linecap="round"/>

  <g stroke="#A8A099" stroke-width="3" stroke-dasharray="9 11" opacity="0.55">
    <rect x="518" y="470" width="436" height="436" fill="none" stroke="#A8A099" stroke-width="2.5" stroke-dasharray="0"/>
    <line x1="736" y1="470" x2="736" y2="906"/>
    <line x1="518" y1="688" x2="954" y2="688"/>
    <line x1="518" y1="470" x2="954" y2="906"/>
    <line x1="954" y1="470" x2="518" y2="906"/>
  </g>
  <text class="hanzi" x="736" y="828" text-anchor="middle">写</text>
</svg>
