<?xml version="1.0" encoding="UTF-8"?>
<svg xmlns="http://www.w3.org/2000/svg" viewBox="0 0 1024 1024" width="1024" height="1024">
  <defs>
    <style>
      .pinyin { font-family: serif; font-size: 140px; font-weight: 600; fill: #141414; }
      .hanzi { font-family: serif; font-size: 380px; font-weight: 800; fill: #141414; }
    </style>
  </defs>
  <rect x="0" y="0" width="1024" height="1024" rx="220" ry="220" fill="#F6F1E6"/>
  <rect x="40" y="40" width="944" height="944" rx="200" ry="200"
        fill="none" stroke="#141414" stroke-width="12"/>

  <text class="pinyin" x="258" y="380" text-anchor="middle">d</text>
  <text class="pinyin" x="338" y="380" text-anchor="middle">u</text>
  <!-- 阳平 ˊ: y=280(底) → y=232(顶), 高 48 -->
  <line x1="323" y1="280" x2="354" y2="232"
        stroke="#D93A2E" stroke-width="20" stroke-linecap="round"/>

  <g stroke="#A8A099" stroke-width="2.5" stroke-dasharray="8 10" opacity="0.55">
    <rect x="100" y="480" width="396" height="396" fill="none" stroke="#A8A099" stroke-width="2" stroke-dasharray="0"/>
    <line x1="298" y1="480" x2="298" y2="876"/>
    <line x1="100" y1="678" x2="496" y2="678"/>
    <line x1="100" y1="480" x2="496" y2="876"/>
    <line x1="496" y1="480" x2="100" y2="876"/>
  </g>
  <text class="hanzi" x="298" y="810" text-anchor="middle">读</text>

  <text class="pinyin" x="658" y="380" text-anchor="middle">x</text>
  <text class="pinyin" x="728" y="380" text-anchor="middle">i</text>
  <text class="pinyin" x="798" y="380" text-anchor="middle">e</text>
  <!-- 上声 ˇ: 两端 y=232 (顶对齐阳平), 弧底 y=280 (底对齐阳平) -->
  <path d="M 774 232 Q 798 280 822 232"
        fill="none" stroke="#D93A2E" stroke-width="20"
        stroke-linecap="round"/>

  <g stroke="#A8A099" stroke-width="2.5" stroke-dasharray="8 10" opacity="0.55">
    <rect x="540" y="480" width="396" height="396" fill="none" stroke="#A8A099" stroke-width="2" stroke-dasharray="0"/>
    <line x1="738" y1="480" x2="738" y2="876"/>
    <line x1="540" y1="678" x2="936" y2="678"/>
    <line x1="540" y1="480" x2="936" y2="876"/>
    <line x1="936" y1="480" x2="540" y2="876"/>
  </g>
  <text class="hanzi" x="738" y="810" text-anchor="middle">写</text>
</svg>
